<?xml version="1.0" encoding="UTF-8"?>
<svg xmlns="http://www.w3.org/2000/svg" xmlns:xlink="http://www.w3.org/1999/xlink" width="32px" height="32px" viewBox="0 0 32 32" version="1.1">
<g id="surface1">
<path style=" stroke:none;fill-rule:nonzero;fill:rgb(100%,100%,100%);fill-opacity:1;" d="M 28.992188 30.371094 L 3.007812 30.371094 L 16 1.039062 L 16.878906 2.320312 L 28.417969 29.011719 Z M 28.992188 30.371094 "/>
<path style=" stroke:none;fill-rule:nonzero;fill:rgb(100%,78.431373%,38.039216%);fill-opacity:1;" d="M 27.878906 28.851562 L 5.1875 28.851562 L 16.53125 1.980469 Z M 27.878906 28.851562 "/>
<path style="fill:none;stroke-width:6;stroke-linecap:round;stroke-linejoin:round;stroke:rgb(18.431373%,26.27451%,37.647059%);stroke-opacity:1;stroke-miterlimit:4;" d="M 100 6.494141 L 181.201172 189.819336 L 18.798828 189.819336 Z M 100 6.494141 " transform="matrix(0.16,0,0,0.16,0,0)"/>
<path style=" stroke:none;fill-rule:nonzero;fill:rgb(18.431373%,26.27451%,37.647059%);fill-opacity:1;" d="M 19.703125 8.707031 L 12.011719 8.707031 L 10.589844 12.078125 L 21.125 12.078125 Z M 19.703125 8.707031 "/>
<path style=" stroke:none;fill-rule:nonzero;fill:rgb(18.431373%,26.27451%,37.647059%);fill-opacity:1;" d="M 22.59375 15.214844 L 9.40625 15.214844 L 7.984375 18.582031 L 24.015625 18.582031 Z M 22.59375 15.214844 "/>
<path style=" stroke:none;fill-rule:nonzero;fill:rgb(18.431373%,26.27451%,37.647059%);fill-opacity:1;" d="M 25.339844 21.722656 L 6.660156 21.722656 L 5.238281 25.089844 L 26.761719 25.089844 Z M 25.339844 21.722656 "/>
<path style=" stroke:none;fill-rule:nonzero;fill:rgb(100%,100%,100%);fill-opacity:1;" d="M 30.1875 29.894531 C 30.183594 30.480469 29.707031 30.957031 29.121094 30.960938 L 2.878906 30.960938 C 2.308594 30.9375 1.855469 30.46875 1.855469 29.894531 C 1.855469 29.320312 2.308594 28.847656 2.878906 28.828125 L 29.121094 28.828125 C 29.707031 28.828125 30.183594 29.304688 30.1875 29.894531 Z M 30.1875 29.894531 "/>
<path style=" stroke:none;fill-rule:nonzero;fill:rgb(100%,78.431373%,38.039216%);fill-opacity:1;" d="M 30.1875 29.894531 C 30.183594 30.480469 29.707031 30.957031 29.121094 30.960938 L 4.695312 30.960938 C 4.121094 30.9375 3.667969 30.46875 3.667969 29.894531 C 3.667969 29.320312 4.121094 28.847656 4.695312 28.828125 L 29.121094 28.828125 C 29.707031 28.828125 30.183594 29.304688 30.1875 29.894531 Z M 30.1875 29.894531 "/>
<path style="fill:none;stroke-width:6;stroke-linecap:round;stroke-linejoin:round;stroke:rgb(18.431373%,26.27451%,37.647059%);stroke-opacity:1;stroke-miterlimit:4;" d="M 17.993164 180.175781 L 181.982422 180.175781 C 185.668945 180.175781 188.671875 183.154297 188.671875 186.84082 C 188.671875 190.527344 185.668945 193.505859 181.982422 193.505859 L 17.993164 193.505859 C 14.306641 193.505859 11.328125 190.527344 11.328125 186.84082 C 11.328125 183.154297 14.306641 180.175781 17.993164 180.175781 Z M 17.993164 180.175781 " transform="matrix(0.16,0,0,0.16,0,0)"/>
</g>
</svg>
