<?xml version="1.0" encoding="UTF-8"?>
<svg xmlns="http://www.w3.org/2000/svg" xmlns:xlink="http://www.w3.org/1999/xlink" width="32px" height="32px" viewBox="0 0 32 32" version="1.1">
<g id="surface1">
<path style=" stroke:none;fill-rule:nonzero;fill:rgb(50.196078%,50.196078%,50.196078%);fill-opacity:1;" d="M 3.824219 10.605469 L 2.230469 10.605469 C 1.953125 10.605469 1.730469 10.828125 1.730469 11.105469 L 1.730469 21.214844 C 1.730469 21.492188 1.953125 21.714844 2.230469 21.714844 L 3.824219 21.714844 C 4.101562 21.714844 4.324219 21.492188 4.324219 21.214844 L 4.324219 11.105469 C 4.324219 10.828125 4.101562 10.605469 3.824219 10.605469 Z M 3.824219 10.605469 "/>
<path style=" stroke:none;fill-rule:nonzero;fill:rgb(50.196078%,50.196078%,50.196078%);fill-opacity:1;" d="M 14.734375 15.925781 L 13.140625 15.925781 C 12.863281 15.925781 12.640625 16.152344 12.640625 16.425781 L 12.640625 21.214844 C 12.640625 21.492188 12.863281 21.714844 13.140625 21.714844 L 14.734375 21.714844 C 15.011719 21.714844 15.234375 21.492188 15.234375 21.214844 L 15.234375 16.425781 C 15.234375 16.152344 15.011719 15.925781 14.734375 15.925781 Z M 14.734375 15.925781 "/>
<path style=" stroke:none;fill-rule:nonzero;fill:rgb(96.862745%,81.568627%,29.019608%);fill-opacity:1;" d="M 29.503906 15.660156 L 28.007812 15.660156 L 28.007812 11.703125 C 28.007812 9.777344 26.441406 8.210938 24.515625 8.210938 L 20.523438 8.210938 C 19.699219 8.210938 19.027344 8.882812 19.027344 9.707031 L 19.027344 19.121094 L 0.5 19.121094 C 0.222656 19.121094 0 19.34375 0 19.621094 L 0 23.34375 C 0 23.621094 0.222656 23.84375 0.5 23.84375 L 31.5 23.84375 C 31.777344 23.84375 32 23.621094 32 23.34375 L 32 18.15625 C 32 16.78125 30.882812 15.660156 29.503906 15.660156 Z M 29.503906 15.660156 "/>
<path style=" stroke:none;fill-rule:nonzero;fill:rgb(95.294118%,70.588235%,10.588235%);fill-opacity:1;" d="M 0 22.390625 L 0 23.34375 C 0 23.621094 0.222656 23.84375 0.5 23.84375 L 31.5 23.84375 C 31.777344 23.84375 32 23.621094 32 23.34375 L 32 22.390625 Z M 0 22.390625 "/>
<path style=" stroke:none;fill-rule:nonzero;fill:rgb(50.196078%,50.196078%,50.196078%);fill-opacity:1;" d="M 24.515625 9.808594 L 21.121094 9.808594 C 20.847656 9.808594 20.625 10.03125 20.625 10.304688 L 20.625 16.160156 C 20.625 16.4375 20.847656 16.660156 21.121094 16.660156 L 25.914062 16.660156 C 26.1875 16.660156 26.410156 16.4375 26.410156 16.160156 L 26.410156 11.703125 C 26.410156 10.65625 25.5625 9.808594 24.515625 9.808594 Z M 24.515625 9.808594 "/>
<path style=" stroke:none;fill-rule:nonzero;fill:rgb(95.294118%,70.588235%,10.588235%);fill-opacity:1;" d="M 22.71875 18.121094 L 21.121094 18.121094 C 20.847656 18.121094 20.625 17.898438 20.625 17.625 C 20.625 17.347656 20.847656 17.125 21.121094 17.125 L 22.71875 17.125 C 22.996094 17.125 23.21875 17.347656 23.21875 17.625 C 23.21875 17.898438 22.996094 18.121094 22.71875 18.121094 Z M 22.71875 18.121094 "/>
<path style=" stroke:none;fill-rule:nonzero;fill:rgb(92.156863%,40.784314%,21.176471%);fill-opacity:1;" d="M 16.542969 7.0625 L 11.410156 18.390625 C 11.453125 18.390625 11.492188 18.382812 11.53125 18.375 L 15.949219 17.277344 C 16.097656 17.242188 16.222656 17.136719 16.285156 16.996094 L 18.769531 11.402344 C 18.832031 11.257812 18.824219 11.089844 18.746094 10.953125 Z M 16.542969 7.0625 "/>
<path style=" stroke:none;fill-rule:nonzero;fill:rgb(92.156863%,40.784314%,21.176471%);fill-opacity:1;" d="M 3.015625 3.898438 C 2.808594 3.886719 2.617188 4.007812 2.535156 4.195312 L 0.0507812 9.789062 C -0.03125 9.976562 0.0078125 10.191406 0.148438 10.339844 L 5.335938 15.699219 C 5.382812 15.746094 5.433594 15.78125 5.492188 15.808594 L 10.59375 4.316406 C 10.539062 4.292969 10.480469 4.277344 10.417969 4.273438 Z M 3.015625 3.898438 "/>
<path style=" stroke:none;fill-rule:nonzero;fill:rgb(78.039216%,29.411765%,21.960784%);fill-opacity:1;" d="M 13.636719 13.480469 L 11.410156 18.390625 C 11.453125 18.390625 11.492188 18.382812 11.53125 18.375 L 15.949219 17.277344 C 16.097656 17.242188 16.222656 17.136719 16.285156 16.996094 L 17.125 15.109375 Z M 13.636719 13.480469 "/>
<path style=" stroke:none;fill-rule:nonzero;fill:rgb(78.039216%,29.411765%,21.960784%);fill-opacity:1;" d="M 1.023438 7.597656 L 0.0507812 9.789062 C -0.03125 9.976562 0.0078125 10.191406 0.148438 10.339844 L 5.335938 15.699219 C 5.382812 15.746094 5.433594 15.78125 5.492188 15.808594 L 7.746094 10.734375 Z M 1.023438 7.597656 "/>
<path style=" stroke:none;fill-rule:nonzero;fill:rgb(94.901961%,94.901961%,94.901961%);fill-opacity:1;" d="M 16.574219 7.128906 C 16.527344 7.007812 16.433594 6.90625 16.3125 6.855469 L 10.59375 4.316406 C 10.34375 4.203125 10.046875 4.316406 9.9375 4.570312 L 5.238281 15.148438 C 5.128906 15.402344 5.242188 15.695312 5.492188 15.808594 L 11.210938 18.347656 C 11.273438 18.375 11.34375 18.390625 11.410156 18.390625 C 11.601562 18.390625 11.785156 18.277344 11.867188 18.09375 L 16.566406 7.511719 C 16.617188 7.390625 16.621094 7.253906 16.574219 7.128906 Z M 16.574219 7.128906 "/>
<path style=" stroke:none;fill-rule:nonzero;fill:rgb(89.803922%,89.803922%,89.803922%);fill-opacity:1;" d="M 7.292969 10.523438 L 5.238281 15.148438 C 5.128906 15.402344 5.242188 15.695312 5.492188 15.808594 L 11.210938 18.347656 C 11.273438 18.375 11.34375 18.390625 11.410156 18.390625 C 11.601562 18.390625 11.785156 18.277344 11.867188 18.09375 L 13.867188 13.589844 Z M 7.292969 10.523438 "/>
<path style=" stroke:none;fill-rule:nonzero;fill:rgb(40%,40%,40%);fill-opacity:1;" d="M 26.578125 20.453125 C 24.46875 20.453125 22.753906 22.167969 22.753906 24.277344 C 22.753906 26.386719 24.46875 28.101562 26.578125 28.101562 C 28.6875 28.101562 30.402344 26.386719 30.402344 24.277344 C 30.402344 22.167969 28.6875 20.453125 26.578125 20.453125 Z M 26.578125 20.453125 "/>
<path style=" stroke:none;fill-rule:nonzero;fill:rgb(89.803922%,89.803922%,89.803922%);fill-opacity:1;" d="M 26.578125 22.046875 C 25.347656 22.046875 24.347656 23.046875 24.347656 24.277344 C 24.347656 25.503906 25.347656 26.503906 26.578125 26.503906 C 27.808594 26.503906 28.804688 25.503906 28.804688 24.277344 C 28.804688 23.046875 27.808594 22.046875 26.578125 22.046875 Z M 26.578125 22.046875 "/>
<path style=" stroke:none;fill-rule:nonzero;fill:rgb(40%,40%,40%);fill-opacity:1;" d="M 13.9375 20.453125 C 11.828125 20.453125 10.113281 22.167969 10.113281 24.277344 C 10.113281 26.386719 11.828125 28.101562 13.9375 28.101562 C 16.046875 28.101562 17.761719 26.386719 17.761719 24.277344 C 17.761719 22.167969 16.046875 20.453125 13.9375 20.453125 Z M 13.9375 20.453125 "/>
<path style=" stroke:none;fill-rule:nonzero;fill:rgb(89.803922%,89.803922%,89.803922%);fill-opacity:1;" d="M 13.9375 22.046875 C 12.707031 22.046875 11.707031 23.046875 11.707031 24.277344 C 11.707031 25.503906 12.707031 26.503906 13.9375 26.503906 C 15.167969 26.503906 16.167969 25.503906 16.167969 24.277344 C 16.167969 23.046875 15.167969 22.046875 13.9375 22.046875 Z M 13.9375 22.046875 "/>
<path style=" stroke:none;fill-rule:nonzero;fill:rgb(40%,40%,40%);fill-opacity:1;" d="M 5.6875 20.453125 C 3.578125 20.453125 1.863281 22.167969 1.863281 24.277344 C 1.863281 26.386719 3.578125 28.101562 5.6875 28.101562 C 7.796875 28.101562 9.511719 26.386719 9.511719 24.277344 C 9.511719 22.167969 7.796875 20.453125 5.6875 20.453125 Z M 5.6875 20.453125 "/>
<path style=" stroke:none;fill-rule:nonzero;fill:rgb(89.803922%,89.803922%,89.803922%);fill-opacity:1;" d="M 5.6875 22.046875 C 4.460938 22.046875 3.460938 23.046875 3.460938 24.277344 C 3.460938 25.503906 4.460938 26.503906 5.6875 26.503906 C 6.917969 26.503906 7.917969 25.503906 7.917969 24.277344 C 7.917969 23.046875 6.917969 22.046875 5.6875 22.046875 Z M 5.6875 22.046875 "/>
</g>
</svg>
