<?xml version="1.0" encoding="UTF-8"?>
<svg xmlns="http://www.w3.org/2000/svg" xmlns:xlink="http://www.w3.org/1999/xlink" width="32px" height="32px" viewBox="0 0 32 32" version="1.1">
<g id="surface1">
<path style=" stroke:none;fill-rule:nonzero;fill:rgb(40%,45.882353%,49.803922%);fill-opacity:1;" d="M 25.109375 7.566406 C 25.109375 7.4375 25.007812 7.332031 24.878906 7.332031 L 24.457031 7.332031 C 24.324219 7.332031 24.222656 7.4375 24.222656 7.566406 L 24.222656 17.765625 C 24.222656 17.894531 24.324219 18 24.457031 18 L 24.878906 18 C 25.007812 18 25.109375 17.894531 25.109375 17.765625 Z M 25.109375 7.566406 "/>
<path style=" stroke:none;fill-rule:nonzero;fill:rgb(94.509804%,56.470588%,12.54902%);fill-opacity:1;" d="M 26 17.554688 C 26 18.292969 25.402344 18.890625 24.667969 18.890625 C 23.929688 18.890625 23.332031 18.292969 23.332031 17.554688 C 23.332031 16.820312 23.929688 16.222656 24.667969 16.222656 C 25.402344 16.222656 26 16.820312 26 17.554688 Z M 26 17.554688 "/>
<path style=" stroke:none;fill-rule:nonzero;fill:rgb(94.509804%,56.470588%,12.54902%);fill-opacity:1;" d="M 25.554688 19.777344 C 25.554688 20.269531 25.15625 20.667969 24.667969 20.667969 C 24.175781 20.667969 23.777344 20.269531 23.777344 19.777344 C 23.777344 19.285156 24.175781 18.890625 24.667969 18.890625 C 25.15625 18.890625 25.554688 19.285156 25.554688 19.777344 Z M 25.554688 19.777344 "/>
<path style=" stroke:none;fill-rule:nonzero;fill:rgb(74.117647%,12.54902%,19.607843%);fill-opacity:1;" d="M 29.554688 7.332031 L 25.886719 7.332031 L 8.839844 0.257812 C 8.824219 0.25 8.808594 0.253906 8.796875 0.246094 C 8.753906 0.234375 8.710938 0.222656 8.667969 0.222656 L 8.664062 0.222656 C 8.605469 0.222656 8.550781 0.234375 8.496094 0.257812 C 8.457031 0.273438 8.421875 0.300781 8.386719 0.328125 C 8.375 0.335938 8.363281 0.339844 8.355469 0.351562 C 8.3125 0.390625 8.277344 0.441406 8.257812 0.496094 C 8.253906 0.503906 8.253906 0.515625 8.25 0.523438 L 3.328125 7.464844 C 3.324219 7.46875 3.324219 7.476562 3.320312 7.476562 C 3.054688 7.632812 2.894531 7.914062 2.890625 8.222656 L 2.890625 10 C 2.890625 10.492188 3.285156 10.890625 3.777344 10.890625 L 5.105469 10.890625 L 1.804688 30.222656 L 0.222656 30.222656 L 0.222656 32 L 17.074219 32 L 17.074219 30.222656 L 15.527344 30.222656 L 12.226562 10.890625 L 29.554688 10.890625 C 30.046875 10.890625 30.445312 10.492188 30.445312 10 L 30.445312 8.222656 C 30.445312 7.730469 30.046875 7.332031 29.554688 7.332031 Z M 10.207031 10.890625 L 8.667969 12.125 L 7.128906 10.890625 Z M 8.667969 18.933594 L 11.925781 21.070312 L 8.667969 22.847656 L 5.40625 21.070312 Z M 5.433594 19.5625 L 5.851562 17.089844 L 7.511719 18.175781 Z M 9.820312 18.175781 L 11.484375 17.089844 L 11.90625 19.566406 Z M 8.667969 17.40625 L 6.152344 15.730469 L 8.667969 13.667969 L 11.179688 15.730469 Z M 6.386719 13.953125 L 6.710938 12.0625 L 7.714844 12.886719 Z M 9.617188 12.886719 L 10.625 12.0625 L 10.949219 13.953125 Z M 4.507812 7.332031 L 8.222656 2.097656 L 8.222656 5.554688 L 6.445312 5.554688 C 5.953125 5.554688 5.554688 5.953125 5.554688 6.445312 L 5.554688 7.332031 Z M 4.980469 22.210938 L 7.40625 23.535156 L 4.484375 25.128906 Z M 13.726562 30.222656 L 3.613281 30.222656 L 4.226562 26.644531 L 8.667969 24.222656 L 13.117188 26.648438 Z M 12.359375 22.207031 L 12.859375 25.132812 L 9.925781 23.535156 Z M 11.777344 7.332031 L 11.777344 6.445312 C 11.777344 5.953125 11.378906 5.554688 10.890625 5.554688 L 9.109375 5.554688 L 9.109375 1.332031 L 23.566406 7.332031 Z M 13.554688 10 L 12.523438 10 L 12.523438 8.222656 L 13.554688 8.222656 Z M 16.222656 10 L 14.445312 10 L 14.445312 8.222656 L 16.222656 8.222656 Z M 18.890625 10 L 17.109375 10 L 17.109375 8.222656 L 18.890625 8.222656 Z M 21.554688 10 L 19.777344 10 L 19.777344 8.222656 L 21.554688 8.222656 Z M 24.222656 10 L 22.445312 10 L 22.445312 8.222656 L 24.222656 8.222656 Z M 26.890625 10 L 25.109375 10 L 25.109375 8.222656 L 26.890625 8.222656 Z M 29.554688 9.554688 C 29.554688 9.800781 29.355469 10 29.109375 10 L 27.777344 10 L 27.777344 8.222656 L 29.109375 8.222656 C 29.355469 8.222656 29.554688 8.421875 29.554688 8.667969 Z M 29.554688 9.554688 "/>
<path style=" stroke:none;fill-rule:nonzero;fill:rgb(29.411765%,32.941176%,36.470588%);fill-opacity:1;" d="M 10.890625 6.445312 L 9.109375 6.445312 C 8.621094 6.445312 8.222656 6.84375 8.222656 7.332031 L 8.222656 9.109375 C 8.222656 9.601562 8.621094 10 9.109375 10 L 11.777344 10 L 11.777344 6.445312 Z M 10.890625 6.445312 "/>
<path style=" stroke:none;fill-rule:nonzero;fill:rgb(80.392157%,84.313725%,87.45098%);fill-opacity:1;" d="M 10 6.445312 L 11.777344 6.445312 L 11.777344 10 L 10 10 Z M 10 6.445312 "/>
<path style=" stroke:none;fill-rule:nonzero;fill:rgb(40%,45.882353%,49.803922%);fill-opacity:1;" d="M 30.972656 21.332031 L 30.972656 20.445312 L 18.359375 20.445312 L 18.359375 21.332031 L 19.109375 21.332031 L 19.109375 23.527344 L 18.359375 23.527344 L 18.359375 24.417969 L 30.972656 24.417969 L 30.972656 23.527344 L 30.222656 23.527344 L 30.222656 21.332031 Z M 30.972656 21.332031 "/>
</g>
</svg>
