<?xml version="1.0" encoding="UTF-8"?>
<svg xmlns="http://www.w3.org/2000/svg" xmlns:xlink="http://www.w3.org/1999/xlink" width="32px" height="32px" viewBox="0 0 32 32" version="1.1">
<g id="surface1">
<path style=" stroke:none;fill-rule:nonzero;fill:rgb(100%,100%,100%);fill-opacity:1;" d="M 0.90625 6.25 L 15.945312 6.25 L 15.945312 12.648438 L 0.90625 12.648438 Z M 0.90625 6.25 "/>
<path style=" stroke:none;fill-rule:nonzero;fill:rgb(100%,78.431373%,38.039216%);fill-opacity:1;" d="M 15.945312 6.25 L 15.945312 11.488281 L 2.667969 11.488281 C 2.3125 11.488281 2.027344 11.203125 2.027344 10.847656 L 2.027344 6.25 Z M 15.945312 6.25 "/>
<path style="fill:none;stroke-width:6;stroke-linecap:round;stroke-linejoin:round;stroke:rgb(18.431373%,26.27451%,37.647059%);stroke-opacity:1;stroke-miterlimit:4;" d="M 10.595703 39.0625 L 94.750977 39.0625 C 97.460938 39.0625 99.658203 41.259766 99.658203 43.969727 L 99.658203 74.145508 C 99.658203 76.855469 97.460938 79.052734 94.750977 79.052734 L 10.595703 79.052734 C 7.861328 79.052734 5.664062 76.855469 5.664062 74.145508 L 5.664062 43.969727 C 5.664062 41.259766 7.861328 39.0625 10.595703 39.0625 Z M 10.595703 39.0625 " transform="matrix(0.16,0,0,0.16,0,0)"/>
<path style=" stroke:none;fill-rule:nonzero;fill:rgb(100%,100%,100%);fill-opacity:1;" d="M 8.425781 12.804688 L 23.46875 12.804688 L 23.46875 19.203125 L 8.425781 19.203125 Z M 8.425781 12.804688 "/>
<path style=" stroke:none;fill-rule:nonzero;fill:rgb(100%,78.431373%,38.039216%);fill-opacity:1;" d="M 23.46875 12.800781 L 23.46875 18.039062 L 10.1875 18.039062 C 9.832031 18.039062 9.546875 17.753906 9.546875 17.398438 L 9.546875 12.800781 Z M 23.46875 12.800781 "/>
<path style="fill:none;stroke-width:6;stroke-linecap:round;stroke-linejoin:round;stroke:rgb(18.431373%,26.27451%,37.647059%);stroke-opacity:1;stroke-miterlimit:4;" d="M 57.592773 80.029297 L 141.748047 80.029297 C 144.458008 80.029297 146.679688 82.226562 146.679688 84.960938 L 146.679688 115.112305 C 146.679688 117.822266 144.458008 120.019531 141.748047 120.019531 L 57.592773 120.019531 C 54.882812 120.019531 52.661133 117.822266 52.661133 115.112305 L 52.661133 84.960938 C 52.661133 82.226562 54.882812 80.029297 57.592773 80.029297 Z M 57.592773 80.029297 " transform="matrix(0.16,0,0,0.16,0,0)"/>
<path style=" stroke:none;fill-rule:nonzero;fill:rgb(100%,100%,100%);fill-opacity:1;" d="M 15.945312 6.25 L 30.988281 6.25 L 30.988281 12.648438 L 15.945312 12.648438 Z M 15.945312 6.25 "/>
<path style=" stroke:none;fill-rule:nonzero;fill:rgb(100%,78.431373%,38.039216%);fill-opacity:1;" d="M 30.988281 6.25 L 30.988281 11.488281 L 17.707031 11.488281 C 17.355469 11.488281 17.066406 11.203125 17.066406 10.847656 L 17.066406 6.25 Z M 30.988281 6.25 "/>
<path style="fill:none;stroke-width:6;stroke-linecap:round;stroke-linejoin:round;stroke:rgb(18.431373%,26.27451%,37.647059%);stroke-opacity:1;stroke-miterlimit:4;" d="M 104.589844 39.0625 L 188.745117 39.0625 C 191.455078 39.0625 193.676758 41.259766 193.676758 43.969727 L 193.676758 74.145508 C 193.676758 76.855469 191.455078 79.052734 188.745117 79.052734 L 104.589844 79.052734 C 101.879883 79.052734 99.658203 76.855469 99.658203 74.145508 L 99.658203 43.969727 C 99.658203 41.259766 101.879883 39.0625 104.589844 39.0625 Z M 104.589844 39.0625 " transform="matrix(0.16,0,0,0.16,0,0)"/>
<path style=" stroke:none;fill-rule:nonzero;fill:rgb(100%,100%,100%);fill-opacity:1;" d="M 0.90625 12.800781 L 8.425781 12.800781 L 8.425781 19.199219 L 0.90625 19.199219 Z M 0.90625 12.800781 "/>
<path style=" stroke:none;fill-rule:nonzero;fill:rgb(100%,78.431373%,38.039216%);fill-opacity:1;" d="M 0.90625 12.800781 L 8.425781 12.800781 L 8.425781 18.039062 L 0.90625 18.039062 Z M 0.90625 12.800781 "/>
<path style="fill:none;stroke-width:6;stroke-linecap:round;stroke-linejoin:round;stroke:rgb(18.431373%,26.27451%,37.647059%);stroke-opacity:1;stroke-miterlimit:4;" d="M 5.664062 84.912109 L 5.664062 115.087891 C 5.664062 117.797852 7.861328 119.995117 10.595703 119.995117 L 52.661133 119.995117 L 52.661133 80.004883 L 10.595703 80.004883 C 9.277344 80.004883 8.032227 80.517578 7.104492 81.445312 C 6.176758 82.348633 5.664062 83.618164 5.664062 84.912109 Z M 5.664062 84.912109 " transform="matrix(0.16,0,0,0.16,0,0)"/>
<path style=" stroke:none;fill-rule:nonzero;fill:rgb(100%,100%,100%);fill-opacity:1;" d="M 23.574219 12.800781 L 31.09375 12.800781 L 31.09375 19.199219 L 23.574219 19.199219 Z M 23.574219 12.800781 "/>
<path style=" stroke:none;fill-rule:nonzero;fill:rgb(100%,78.431373%,38.039216%);fill-opacity:1;" d="M 23.574219 12.800781 L 31.09375 12.800781 L 31.09375 18.039062 L 23.574219 18.039062 Z M 23.574219 12.800781 "/>
<path style="fill:none;stroke-width:6;stroke-linecap:round;stroke-linejoin:round;stroke:rgb(18.431373%,26.27451%,37.647059%);stroke-opacity:1;stroke-miterlimit:4;" d="M 194.335938 84.912109 L 194.335938 115.087891 C 194.335938 117.797852 192.138672 119.995117 189.404297 119.995117 L 147.338867 119.995117 L 147.338867 80.004883 L 189.404297 80.004883 C 190.722656 80.004883 191.967773 80.517578 192.895508 81.445312 C 193.823242 82.348633 194.335938 83.618164 194.335938 84.912109 Z M 194.335938 84.912109 " transform="matrix(0.16,0,0,0.16,0,0)"/>
<path style=" stroke:none;fill-rule:nonzero;fill:rgb(100%,100%,100%);fill-opacity:1;" d="M 0.90625 19.351562 L 15.945312 19.351562 L 15.945312 25.75 L 0.90625 25.75 Z M 0.90625 19.351562 "/>
<path style=" stroke:none;fill-rule:nonzero;fill:rgb(100%,78.431373%,38.039216%);fill-opacity:1;" d="M 15.945312 19.351562 L 15.945312 24.589844 L 2.667969 24.589844 C 2.3125 24.589844 2.027344 24.304688 2.027344 23.949219 L 2.027344 19.351562 Z M 15.945312 19.351562 "/>
<path style="fill:none;stroke-width:6;stroke-linecap:round;stroke-linejoin:round;stroke:rgb(18.431373%,26.27451%,37.647059%);stroke-opacity:1;stroke-miterlimit:4;" d="M 10.595703 120.947266 L 94.750977 120.947266 C 97.460938 120.947266 99.658203 123.144531 99.658203 125.854492 L 99.658203 156.030273 C 99.658203 158.740234 97.460938 160.9375 94.750977 160.9375 L 10.595703 160.9375 C 7.861328 160.9375 5.664062 158.740234 5.664062 156.030273 L 5.664062 125.854492 C 5.664062 123.144531 7.861328 120.947266 10.595703 120.947266 Z M 10.595703 120.947266 " transform="matrix(0.16,0,0,0.16,0,0)"/>
<path style=" stroke:none;fill-rule:nonzero;fill:rgb(100%,100%,100%);fill-opacity:1;" d="M 15.945312 19.351562 L 30.988281 19.351562 L 30.988281 25.75 L 15.945312 25.75 Z M 15.945312 19.351562 "/>
<path style=" stroke:none;fill-rule:nonzero;fill:rgb(100%,78.431373%,38.039216%);fill-opacity:1;" d="M 30.988281 19.351562 L 30.988281 24.589844 L 17.707031 24.589844 C 17.355469 24.589844 17.066406 24.304688 17.066406 23.949219 L 17.066406 19.351562 Z M 30.988281 19.351562 "/>
<path style="fill:none;stroke-width:6;stroke-linecap:round;stroke-linejoin:round;stroke:rgb(18.431373%,26.27451%,37.647059%);stroke-opacity:1;stroke-miterlimit:4;" d="M 104.589844 120.947266 L 188.745117 120.947266 C 191.455078 120.947266 193.676758 123.144531 193.676758 125.854492 L 193.676758 156.030273 C 193.676758 158.740234 191.455078 160.9375 188.745117 160.9375 L 104.589844 160.9375 C 101.879883 160.9375 99.658203 158.740234 99.658203 156.030273 L 99.658203 125.854492 C 99.658203 123.144531 101.879883 120.947266 104.589844 120.947266 Z M 104.589844 120.947266 " transform="matrix(0.16,0,0,0.16,0,0)"/>
</g>
</svg>
